<svg width="500" height="552" version="1.1" viewBox="0 0 500 552" xmlns="http://www.w3.org/2000/svg">
 <path d="m401.34 408.19h95.805c1.5692 0 2.8495-1.2737 2.8495-2.8429v-23.84c0-1.5626-1.2803-2.8429-2.8495-2.8429h-47.088c-1.5692 0-2.8495 1.2737-2.8495 2.8429v4.3005c0 1.5626 1.2803 2.8429 2.8495 2.8429h30.924c0.52524 0 0.95201 0.42676 0.95201 0.94545v4.6156c0 0.51869-0.42677 0.94545-0.95201 0.94545h-61.572c-1.5692 0-2.8495-1.2737-2.8495-2.8429v-17.688c0-1.5626 1.2803-2.8429 2.8495-2.8429h77.743c1.5692 0 2.8495-1.2737 2.8495-2.8429v-6.4737c0-1.5626-1.2803-2.8429-2.8495-2.8429h-95.805c-1.5692 0-2.8495 1.2737-2.8495 2.8429v42.873c0 1.5626 1.2803 2.8429 2.8495 2.8429zm-26.82 0h12.37c1.5692 0 2.8495-1.2737 2.8495-2.8429v-42.873c0-1.5626-1.2803-2.8429-2.8495-2.8429h-13.886c-0.57777 0-1.0702 0.14444-1.556 0.45959l-33.898 22.047c-0.96514 0.63029-2.147 0.63029-3.1121 0l-33.898-22.047c-0.48585-0.31515-0.97827-0.45959-1.556-0.45959h-13.886c-1.5692 0-2.8495 1.2737-2.8495 2.8429v42.873c0 1.5626 1.2803 2.8429 2.8495 2.8429h12.37c1.5692 0 2.8495-1.2737 2.8495-2.8429v-25.842c0-0.49242 0.2495-0.91918 0.68283-1.1621s0.92575-0.2298 1.3525 0.0394l26.243 16.401c0.47273 0.29545 0.95201 0.43333 1.5101 0.43333h11.779c0.55807 0 1.0374-0.13788 1.5101-0.43333l26.243-16.401c0.4202-0.26262 0.91262-0.27575 1.3525-0.0394 0.43333 0.24293 0.68282 0.66312 0.68282 1.1621v25.842c0 1.5626 1.2803 2.8429 2.8495 2.8429zm-103.85 0h-12.37c-1.5692 0-2.8495-1.2737-2.8495-2.8429v-7.5504c0-0.51868-0.42676-0.94544-0.95201-0.94544h-65.006c-0.91262 0-1.6939 0.38737-2.252 1.103l-6.7954 8.7651c-0.74191 0.95858-1.7924 1.4707-3.007 1.4707h-16.979c-0.51868 0-0.96514-0.27576-1.1949-0.74192-0.22979-0.46615-0.17727-0.98484 0.14445-1.3985l35.119-45.316c0.55808-0.72222 1.3394-1.103 2.252-1.103h73.883c1.5692 0 2.8495 1.2737 2.8495 2.8429v42.873c0 1.5626-1.2803 2.8429-2.8495 2.8429zm-15.219-24.798v-10.656c0-0.51869-0.42676-0.94545-0.95201-0.94545h-46.058c-0.6106 0-1.1293 0.25606-1.5035 0.73535l-8.207 10.59c-0.18384 0.23636-0.2101 0.53181-0.0788 0.79444 0.13131 0.26262 0.38737 0.4202 0.68282 0.4202h55.164c0.52525 0 0.95201-0.42677 0.95201-0.94545zm-213.34 24.798h-40.766c-0.51868 0-0.96514-0.27576-1.1949-0.74192-0.2298-0.46615-0.17727-0.98484 0.14444-1.3985l35.119-45.316c0.55808-0.72222 1.3394-1.103 2.252-1.103h40.378c0.5909 0 1.103 0.31515 1.3656 0.84696 0.26262 0.53182 0.20353 1.1293-0.16414 1.5954l-34.883 45.007c-0.55808 0.72222-1.3394 1.103-2.252 1.103zm29.631 0h-19.303c-0.51868 0-0.96514-0.27576-1.1949-0.74192-0.2298-0.46615-0.17727-0.98484 0.13788-1.3985l35.119-45.316c0.55808-0.72222 1.3394-1.103 2.252-1.103h18.915c0.59091 0 1.103 0.31515 1.3656 0.84696 0.26262 0.53182 0.20353 1.1293-0.16414 1.5954l-34.883 45.007c-0.55808 0.72222-1.3394 1.103-2.252 1.103zm26.571 0h-14.91c-0.51869 0-0.96515-0.27576-1.1949-0.74192-0.2298-0.46615-0.17727-0.98484 0.14444-1.3985l35.119-45.316c0.55807-0.72222 1.3394-1.103 2.252-1.103h14.523c0.59091 0 1.103 0.31515 1.3656 0.84696 0.26262 0.53182 0.20353 1.1293-0.16414 1.5954l-34.883 45.007c-0.55808 0.72222-1.3394 1.103-2.252 1.103zm24.01 0h-10.413c-0.51868 0-0.96514-0.27576-1.1949-0.74192-0.22979-0.46615-0.17727-0.98484 0.14445-1.3985l35.119-45.316c0.55808-0.72222 1.3394-1.103 2.252-1.103h10.026c0.59091 0 1.103 0.31515 1.3656 0.84696 0.26262 0.53182 0.20353 1.1293-0.16414 1.5954l-34.883 45.007c-0.55807 0.72222-1.3459 1.103-2.252 1.103zm22.993 0h-7.6555c-0.51868 0-0.96514-0.27576-1.1949-0.74192-0.2298-0.46615-0.17728-0.98484 0.14444-1.3985l35.119-45.316c0.55808-0.72222 1.3394-1.103 2.252-1.103h7.2681c0.59091 0 1.103 0.31515 1.3656 0.84696 0.26262 0.53182 0.20353 1.1293-0.16414 1.5954l-34.883 45.007c-0.55808 0.72222-1.3394 1.103-2.252 1.103z"/>
 <path d="m16.778 493.6c0-4.4974-0.02626-14.661 0-15.245 0.03283-0.8207 0.6106-1.6545 1.4182-1.9368 0.36111-0.12475 0.76818-0.0919 1.149-0.0919h6.4671c4.4974 0 8.962-0.37424 13.236-1.8975 4.4909-1.5954 8.5287-4.3464 11.083-8.4368 2.5081-4.0182 3.3288-8.8964 2.9611-13.571-0.27576-3.4929-1.3197-6.9201-3.2959-9.8353-4.202-6.1914-11.693-8.8307-18.896-9.3297-0.96514-0.0657-1.9697-0.11818-2.902-0.0985-2.8692 7e-3 -5.7383 0-8.6075 0h-11.903c-2.8429 0-7.4782-0.13131-7.4782 3.9525v5.8303 50.654h16.775zm19.618-38.225c0 4.7535-3.6242 7.8393-9.5989 7.8393h-10.019v-13.328c0-1.4379 1.1752-2.6197 2.6065-2.6197h7.3141c6.0732 0 9.6974 2.7444 9.6974 7.9378zm358.2 38.218 3.053-7.6358c0.47273-1.2081 1.4904-2.4752 2.7838-2.705h21.66l4.2479 10.334h17.99l-25.626-60.43h-13.755c-2.0353 0.2298-2.8429 1.3066-3.5717 2.7707l-24.457 57.659h17.675zm15.908-40.575 6.7626 17.182h-13.63zm66.936 2.9348c-8.4368-1.8843-10.485-3.0924-10.485-5.8171v-0.20353c0-2.1666 1.9697-3.8868 6.0338-3.8868 3.7293 0 7.708 0.99797 11.667 2.8757 0 0 0.87323 0.42676 1.254 0.63686 1.149 0.51212 2.4687 0.94545 4.1232 0.59747 1.1687-0.24949 2.0222-1.3066 3.0661-2.5672l5.2525-7.406c-6.559-5.2722-14.576-8.0363-24.923-8.0363-14.517 0-23.452 8.1216-23.452 19.355v0.16414c0 12.429 9.9863 16.04 22.855 19.007 8.2136 1.8712 10.183 3.2631 10.183 5.7777v0.15101c0 2.6262-2.403 4.1363-6.8939 4.1363-5.2919 0-10.406-1.4182-15.147-4.1692-1.3722-0.68282-3.0464-1.5954-5.2131-1.1227-0.89292 0.19697-1.5758 0.80101-2.3045 1.6611l-6.3292 7.557c7.4323 6.5919 17.675 9.9732 28.396 9.9732 14.707 0 24.47-7.3338 24.47-19.671v-0.16414c0-11.299-8.6666-15.823-22.553-18.843m-417.12-18.613v56.254h48.717v-14.267h-32.106v-7.2681c0-1.1358 1.0111-2.2914 2.0879-2.2914h26.236v-13.197h-28.331v-6.8676c0-1.0768 0.91918-2.2848 1.9631-2.2848h30.143v-14.26h-44.403c-2.3111 0-4.3202 1.9106-4.3136 4.1823m56.136-0.0328v10.557h18.16v45.723h16.801v-43.812c0-1.0374 0.86666-1.9106 2.101-1.9106h16.073v-14.707h-48.841c-2.3308 0-4.2939 2.0156-4.3005 4.1495m236.35-0.26263v28.088l-24.916-31.974h-11.365c-2.3899 0-4.3136 1.9566-4.3136 4.3267v56.11h16.624v-33.117l25.888 33.117h14.674v-60.436h-12.324c-2.2454 0-4.2742 1.7136-4.2742 3.8868m-82.142-5.0752c-18.679 0-32.677 14.07-32.677 31.443v0.13131c0 17.405 13.821 31.305 32.526 31.305 18.705 0 32.736-14.116 32.736-31.436v-0.1904c0-17.333-13.899-31.246-32.585-31.246m15.416 31.561c0 8.7126-6.106 16.151-15.416 16.151s-15.482-7.5898-15.482-16.283v-0.19041c0-8.7191 6.1717-16.151 15.324-16.151 9.1524 0 15.574 7.6161 15.574 16.342zm-54.882-8.9292v-0.15101c0-13.427-9.8681-21.299-25.173-21.299h-23.702c-2.2717 0-4.2873 1.8252-4.2873 3.9459v56.49h16.775v-15.258c0-0.97827 0.97171-2.0156 1.9106-2.0156h5.9484l11.687 17.274h19.414l-13.965-20.268c7.0252-3.4601 11.391-9.763 11.391-18.725zm-16.762 0.76161c0 4.7535-3.6242 7.8393-9.5989 7.8393h-10.019v-13.328c0-1.4379 1.1752-2.6197 2.6065-2.6197h7.3141c6.0732 0 9.6974 2.7444 9.6974 7.9378z" fill="#00b1a9"/>
 <path d="m379.7 74.881c-13.144-22.763-32.047-41.672-54.816-54.816-22.763-13.144-48.592-20.064-74.881-20.064-26.289 0-52.111 6.9201-74.881 20.064-22.763 13.144-41.672 32.047-54.816 54.816-13.144 22.763-20.064 48.592-20.064 74.881 0 26.289 6.9202 52.111 20.064 74.881 13.144 22.763 32.047 41.672 54.816 54.816 22.763 13.144 48.592 20.064 74.881 20.064 26.289 0 52.111-6.9201 74.881-20.064 22.763-13.144 41.672-32.047 54.816-54.816 13.144-22.763 20.064-48.592 20.064-74.881 0-26.289-6.9201-52.111-20.064-74.881zm-264.48 74.881c0-23.662 6.2308-46.905 18.055-67.389 11.831-20.491 28.843-37.503 49.334-49.334 19.27-11.129 40.976-17.294 63.174-17.99l-17.195 122.35-97.361 76.069c-10.498-19.572-16.007-41.455-16.007-63.706zm202.17 116.72c-20.491 11.831-43.733 18.055-67.389 18.055s-46.898-6.2242-67.389-18.055c-19.27-11.129-35.467-26.84-47.167-45.716l114.56-46.281 114.56 46.281c-11.7 18.876-27.897 34.588-47.167 45.716zm51.382-53.024-97.361-76.069-17.195-122.35c22.198 0.69595 43.904 6.8676 63.174 17.99 20.491 11.831 37.503 28.843 49.334 49.334 11.831 20.491 18.055 43.733 18.055 67.389 0 22.251-5.5085 44.134-16.007 63.706z"/>
 <path d="m319.17 521.59c0-1.7268 1.3919-3.1187 3.1909-3.1187 1.799 0 3.1909 1.3919 3.1909 3.1187 0 1.7268-1.3985 3.1187-3.204 3.1187s-3.1843-1.3919-3.1843-3.1187zm3.1909 2.6197c1.497 0 2.6722-1.1556 2.6722-2.6262 0-1.4707-1.1752-2.6131-2.6722-2.6131-1.497 0-2.6722 1.149-2.6722 2.6131s1.1621 2.6262 2.6722 2.6262zm-1.0177-4.4712h1.3919c0.74191 0 1.2672 0.42677 1.2672 1.1818 0 0.51868-0.28889 0.89949-0.72878 1.0636l0.77474 1.4838h-1.0439l-0.66969-1.3919h-0.4596v1.3919h-0.96514v-3.3025c0-0.24949 0.18384-0.42677 0.4399-0.42677zm1.6808 1.1752c0-0.26919-0.15101-0.43333-0.45302-0.43333h-0.70252v0.88635h0.74848c0.28888 0 0.40706-0.17727 0.40706-0.45302zm138.3 30.569v-29.342c0-2.0419 1.5364-3.5717 3.6242-3.5717h9.0146l4.8782 20.445 1.0702 6.1651h1.4904l1.0702-6.1651 4.8323-20.445h12.691v32.913h-6.4606v-26.61h-1.4904l-1.4904 6.8151-4.7404 19.795h-10.321l-4.7863-19.795-1.4904-6.8151h-1.4904l0.046 6.8151v19.795h-6.4606zm-34.016-32.913h12.501l10.269 32.913h-7.1565l-2.7444-9.4545h-9.6186l-2.2323-2.2257h-0.88636l-3.3944 11.68h-7.0186l10.269-32.913zm11.247 17.845-1.8581-6.4409-1.6283-5.8893h-3.1121l-1.6283 5.8893-1.8581 6.4409zm-51.264-17.845h18.456v5.8893h-15.016v7.6949h13.433v5.6989h-10.269l-2.2323-2.2257h-0.93232v9.9666h15.153v5.8893h-22.218v-29.342c0-2.0419 1.5364-3.5717 3.6242-3.5717zm-32.02 5.9747h-9.6646v-5.9813h26.354v5.9813h-9.6646v26.932h-7.0186v-26.932zm-46.038 0.93232h-1.2081l-5.9025 4.6353h-1.2081v-6.4408l6.0863-5.1015h5.6727c2.0944 0 3.5782 1.5298 3.5782 3.5717v29.342h-7.0186zm-56.444-6.907h12.501l10.269 32.913h-7.1565l-2.7444-9.4545h-9.6186l-2.2323-2.2257h-0.88635l-3.3944 11.68h-7.0186l10.269-32.913zm11.247 17.845-1.8581-6.4409-1.6283-5.8893h-3.1121l-1.6283 5.8893-1.8581 6.4409zm-52.932-17.845h7.0646v26.932h14.549v5.9813h-21.614zm-40.529 20.629v-20.629h7.0186v20.347c0 4.6353 2.8363 7.1368 6.5984 7.1368s6.5984-2.5015 6.5984-7.1368v-20.347h7.0646v20.629c0 6.0272-3.8606 12.796-13.663 12.796s-13.617-6.8151-13.617-12.796zm-51.914 12.284v-29.342c0-2.0419 1.5364-3.5717 3.6242-3.5717h9.0146l4.8782 20.445 1.0702 6.1651h1.4904l1.0702-6.1651 4.8323-20.445h12.691v32.913h-6.4606v-26.61h-1.4904l-1.4904 6.8151-4.7404 19.795h-10.321l-4.7863-19.795-1.4904-6.8151h-1.4904l0.046 6.8151v19.795h-6.4606zm-35.645-32.913h10.971c6.8348 0 11.431 3.7096 11.431 10.196 0 4.1692-2.0419 7.2747-5.4823 8.903v0.92575l2.8823 1.4838 3.7621 11.404h-7.3469l-4.2282-12.704c-0.27576 0.046-0.55808 0.046-0.88636 0.046h-7.6686v12.652h-7.0646v-29.342c0-2.0419 1.5364-3.5717 3.6242-3.5717zm15.245 10.104c0-2.9217-1.6283-4.4974-4.7863-4.4974h-7.0186v9.2247h7.4388c3.0202 0 4.3661-1.7596 4.3661-4.7272zm-65.393 6.303c0-10.571 7.6227-16.92 17.057-16.92s17.011 6.3489 17.011 16.92c0 10.571-7.6227 17.011-17.011 17.011s-17.057-6.3489-17.057-17.011zm17.011 11.221c5.8106 0 9.855-4.0313 9.855-11.221s-4.0904-11.122-9.855-11.122c-5.7646 0-9.855 4.0313-9.855 11.122s4.0904 11.221 9.855 11.221zm-46.248-27.628h18.22v5.9813h-14.779v7.9706h13.387v5.653h-10.223l-2.2323-2.2257h-0.93232v15.528h-7.0646v-29.342c0-2.0419 1.5364-3.5717 3.6242-3.5717z"/>
</svg>
